<svg version="1.1" id="Layer_1" xmlns="http://www.w3.org/2000/svg" xmlns:xlink="http://www.w3.org/1999/xlink" x="0px" y="0px"
	 width="100%" viewBox="0 0 725 662" enable-background="new 0 0 725 662" xml:space="preserve">
<path fill="#FEFEFF" opacity="1.000000" stroke="none" 
	d="
M447.000000,663.000000 
	C298.000000,663.000000 149.500000,663.000000 1.000000,663.000000 
	C1.000000,442.333344 1.000000,221.666672 1.000000,1.000000 
	C242.666672,1.000000 484.333344,1.000000 726.000000,1.000000 
	C726.000000,221.666672 726.000000,442.333344 726.000000,663.000000 
	C633.166687,663.000000 540.333313,663.000000 447.000000,663.000000 
M203.664368,580.220032 
	C223.634674,565.344604 240.435516,547.414246 252.573898,525.727356 
	C260.510681,511.547150 266.876465,496.443451 273.333496,481.489014 
	C284.412140,455.830994 295.087677,429.997437 305.738159,404.157471 
	C307.521179,399.831573 309.617126,397.850403 314.738800,397.867065 
	C377.724213,398.072144 440.710571,398.000732 503.696655,398.000702 
	C505.438110,398.000702 507.179565,398.000702 508.776611,398.000702 
	C508.776611,385.955963 508.776611,374.675659 508.776611,362.771362 
	C447.073456,362.771362 385.591675,362.771362 323.323792,362.771362 
	C345.548370,309.662140 367.430389,257.371521 389.312378,205.080933 
	C389.903107,205.132599 390.493835,205.184265 391.084564,205.235931 
	C394.296112,212.779709 397.456787,220.345642 400.728729,227.863129 
	C410.579407,250.495468 420.480896,273.105682 430.342438,295.733307 
	C431.816467,299.115540 436.091705,299.943787 438.919586,297.409485 
	C445.935638,291.121918 453.052063,284.944427 459.978027,278.559845 
	C461.207245,277.426697 462.063110,275.599213 462.493683,273.937469 
	C464.719849,265.345825 465.827942,256.342682 469.030914,248.149597 
	C477.414978,226.703186 491.728271,209.765503 511.695404,198.192505 
	C520.647644,193.003799 530.444702,189.272675 540.022949,184.803329 
	C537.056519,178.800461 533.799561,172.359558 530.672607,165.856155 
	C516.757812,136.916595 502.928741,107.935532 488.857208,79.072578 
	C488.089661,77.498260 485.406525,75.914856 483.621521,75.922119 
	C459.795715,76.018982 435.971222,76.415855 412.146027,76.705109 
	C369.159485,77.226990 326.172058,77.685249 283.188049,78.365181 
	C281.164276,78.397186 278.060669,79.818100 277.331268,81.435905 
	C268.280121,101.510941 259.555298,121.733467 250.788071,141.936081 
	C236.114059,175.749847 221.500916,209.590042 206.800720,243.392410 
	C199.123016,261.046906 191.257919,278.619904 183.580688,296.274597 
	C175.649200,314.514008 167.872742,332.820770 159.974518,351.074707 
	C148.797897,376.905457 137.591934,402.723541 126.360992,428.530731 
	C115.854240,452.673920 105.274223,476.785217 94.772614,500.930664 
	C87.037384,518.715637 79.413307,536.548950 71.672607,554.331543 
	C63.185852,573.827942 54.593555,593.278381 46.107990,612.775391 
	C43.278378,619.276794 40.636120,625.859863 37.590302,633.168457 
	C48.649776,631.880371 58.697571,630.936523 68.668839,629.471680 
	C75.689796,628.440247 82.599991,626.666809 89.571899,625.286499 
	C97.665764,623.684021 105.941032,622.731384 113.836273,620.452637 
	C126.673859,616.747559 139.315353,612.334961 151.951141,607.965149 
	C170.427200,601.575623 187.336945,592.171631 203.664368,580.220032 
M576.044922,101.652443 
	C574.831970,104.934631 574.391907,108.884186 572.250244,111.364555 
	C567.297668,117.100441 560.847961,121.605019 556.244690,127.565956 
	C550.164246,135.439743 545.269104,144.228836 539.410278,153.330048 
	C551.377441,156.631805 561.958496,159.551132 572.830811,162.550812 
	C573.210815,165.224808 573.733582,168.139862 574.020691,171.077957 
	C574.662231,177.644424 577.596252,182.165833 584.306763,184.023499 
	C587.768982,184.981964 591.295898,186.234558 594.334534,188.101349 
	C605.838806,195.168808 616.301025,195.202332 624.919617,184.097336 
	C635.336792,189.995087 645.128235,195.538574 655.334106,201.316666 
	C656.907043,195.437836 658.428345,190.558090 659.501221,185.581696 
	C662.088074,173.582993 664.569458,161.572021 662.120239,149.157501 
	C661.793030,147.499130 662.676270,145.305939 663.624146,143.738464 
	C671.826538,130.174362 677.947510,115.939186 679.022278,99.859825 
	C680.617126,75.998123 672.401733,54.411888 663.636108,32.966095 
	C661.730164,28.303162 657.683289,26.749069 652.969238,28.757219 
	C644.347107,32.430096 635.720398,36.137955 627.335266,40.312622 
	C601.627625,53.111618 583.727051,72.620789 576.044922,101.652443 
M596.329956,229.946884 
	C595.079712,219.245117 597.347473,209.011993 600.883179,198.831863 
	C594.227112,196.081772 587.908020,193.470901 581.435181,190.796524 
	C575.476196,204.600586 566.018250,214.722809 553.370056,221.857056 
	C542.824707,227.805191 532.638123,231.048218 520.197632,224.956360 
	C509.411682,219.674698 498.032623,222.391006 488.829620,230.707275 
	C479.262543,239.352524 476.812805,250.318985 480.033142,262.450317 
	C482.887238,273.201965 490.496460,279.745605 500.711731,283.419067 
	C498.415039,302.720276 512.997009,313.620148 532.085876,307.570496 
	C533.727051,323.401031 541.705627,334.738983 557.612122,337.650879 
	C573.302490,340.523224 585.213013,333.607880 592.312927,319.196899 
	C604.723633,326.294067 617.343567,326.301788 627.275818,319.062897 
	C638.204590,311.097687 642.768616,300.269714 639.920410,286.968842 
	C637.248657,274.492157 629.176575,266.255035 616.902649,263.620239 
	C608.568115,261.831146 604.113159,257.114319 601.676208,249.852554 
	C599.590088,243.636032 598.242188,237.171768 596.329956,229.946884 
M407.554749,538.001953 
	C428.970856,538.001953 450.386993,538.001953 471.792603,538.001953 
	C471.792603,497.386078 471.792603,457.349304 471.792603,417.297760 
	C447.468475,417.297760 423.423096,417.297760 399.367157,417.297760 
	C399.367157,457.630951 399.367157,497.663635 399.367157,538.001953 
	C401.963928,538.001953 404.269653,538.001953 407.554749,538.001953 
M613.492432,416.997986 
	C593.756775,416.997986 574.021118,416.997986 554.408325,416.997986 
	C554.408325,457.720459 554.408325,497.752289 554.408325,537.666382 
	C578.797119,537.666382 602.849365,537.666382 626.744812,537.666382 
	C626.744812,497.294342 626.744812,457.258484 626.744812,416.997986 
	C622.444092,416.997986 618.466797,416.997986 613.492432,416.997986 
M318.075592,476.500000 
	C318.075592,496.923737 318.075592,517.347473 318.075592,537.766479 
	C326.844482,537.766479 334.956512,537.766479 343.567810,537.766479 
	C343.567810,527.454407 343.567810,517.368896 343.567810,506.883911 
	C358.664490,506.883911 373.262634,506.883911 387.854401,506.883911 
	C387.854401,476.745209 387.854401,447.020111 387.854401,417.000000 
	C377.417145,417.000000 367.277954,416.988068 357.138855,417.004211 
	C350.308167,417.015106 342.708649,415.198608 336.856873,417.608429 
	C330.648438,420.165161 325.943420,426.596985 320.919922,431.671234 
	C319.395050,433.211456 318.242950,435.847382 318.199188,438.007385 
	C317.946045,450.500641 318.075592,463.001617 318.075592,476.500000 
M536.424805,538.000916 
	C538.850769,538.000916 541.276672,538.000916 543.557495,538.000916 
	C543.557495,529.927246 543.557495,522.530823 543.557495,514.818237 
	C531.750122,514.818237 520.308838,514.818237 508.359192,514.818237 
	C508.359192,482.101654 508.359192,449.712494 508.359192,417.391693 
	C499.620636,417.391693 491.404327,417.391693 483.321472,417.391693 
	C483.321472,457.722839 483.321472,497.660889 483.321472,538.000916 
	C500.858765,538.000916 518.151917,538.000916 536.424805,538.000916 
z"/>
<path fill="#251D65" opacity="1.000000" stroke="none" 
	d="
M203.393433,580.457520 
	C187.336945,592.171631 170.427200,601.575623 151.951141,607.965149 
	C139.315353,612.334961 126.673859,616.747559 113.836273,620.452637 
	C105.941032,622.731384 97.665764,623.684021 89.571899,625.286499 
	C82.599991,626.666809 75.689796,628.440247 68.668839,629.471680 
	C58.697571,630.936523 48.649776,631.880371 37.590302,633.168457 
	C40.636120,625.859863 43.278378,619.276794 46.107990,612.775391 
	C54.593555,593.278381 63.185852,573.827942 71.672607,554.331543 
	C79.413307,536.548950 87.037384,518.715637 94.772614,500.930664 
	C105.274223,476.785217 115.854240,452.673920 126.360992,428.530731 
	C137.591934,402.723541 148.797897,376.905457 159.974518,351.074707 
	C167.872742,332.820770 175.649200,314.514008 183.580688,296.274597 
	C191.257919,278.619904 199.123016,261.046906 206.800720,243.392410 
	C221.500916,209.590042 236.114059,175.749847 250.788071,141.936081 
	C259.555298,121.733467 268.280121,101.510941 277.331268,81.435905 
	C278.060669,79.818100 281.164276,78.397186 283.188049,78.365181 
	C326.172058,77.685249 369.159485,77.226990 412.146027,76.705109 
	C435.971222,76.415855 459.795715,76.018982 483.621521,75.922119 
	C485.406525,75.914856 488.089661,77.498260 488.857208,79.072578 
	C502.928741,107.935532 516.757812,136.916595 530.672607,165.856155 
	C533.799561,172.359558 537.056519,178.800461 540.022949,184.803329 
	C530.444702,189.272675 520.647644,193.003799 511.695404,198.192505 
	C491.728271,209.765503 477.414978,226.703186 469.030914,248.149597 
	C465.827942,256.342682 464.719849,265.345825 462.493683,273.937469 
	C462.063110,275.599213 461.207245,277.426697 459.978027,278.559845 
	C453.052063,284.944427 445.935638,291.121918 438.919586,297.409485 
	C436.091705,299.943787 431.816467,299.115540 430.342438,295.733307 
	C420.480896,273.105682 410.579407,250.495468 400.728729,227.863129 
	C397.456787,220.345642 394.296112,212.779709 391.084564,205.235931 
	C390.493835,205.184265 389.903107,205.132599 389.312378,205.080933 
	C367.430389,257.371521 345.548370,309.662140 323.323792,362.771362 
	C385.591675,362.771362 447.073456,362.771362 508.776611,362.771362 
	C508.776611,374.675659 508.776611,385.955963 508.776611,398.000702 
	C507.179565,398.000702 505.438110,398.000702 503.696655,398.000702 
	C440.710571,398.000732 377.724213,398.072144 314.738800,397.867065 
	C309.617126,397.850403 307.521179,399.831573 305.738159,404.157471 
	C295.087677,429.997437 284.412140,455.830994 273.333496,481.489014 
	C266.876465,496.443451 260.510681,511.547150 252.573898,525.727356 
	C240.435516,547.414246 223.634674,565.344604 203.393433,580.457520 
z"/>
<path fill="#008A94" opacity="1.000000" stroke="none" 
	d="
M576.148438,101.257355 
	C583.727051,72.620789 601.627625,53.111618 627.335266,40.312622 
	C635.720398,36.137955 644.347107,32.430096 652.969238,28.757219 
	C657.683289,26.749069 661.730164,28.303162 663.636108,32.966095 
	C672.401733,54.411888 680.617126,75.998123 679.022278,99.859825 
	C677.947510,115.939186 671.826538,130.174362 663.624146,143.738464 
	C662.676270,145.305939 661.793030,147.499130 662.120239,149.157501 
	C664.569458,161.572021 662.088074,173.582993 659.501221,185.581696 
	C658.428345,190.558090 656.907043,195.437836 655.334106,201.316666 
	C645.128235,195.538574 635.336792,189.995087 624.919617,184.097336 
	C616.301025,195.202332 605.838806,195.168808 594.334534,188.101349 
	C591.295898,186.234558 587.768982,184.981964 584.306763,184.023499 
	C577.596252,182.165833 574.662231,177.644424 574.020691,171.077957 
	C573.733582,168.139862 573.210815,165.224808 572.830811,162.550812 
	C561.958496,159.551132 551.377441,156.631805 539.410278,153.330048 
	C545.269104,144.228836 550.164246,135.439743 556.244690,127.565956 
	C560.847961,121.605019 567.297668,117.100441 572.250244,111.364555 
	C574.391907,108.884186 574.831970,104.934631 576.148438,101.257355 
M632.843201,83.505882 
	C625.468628,82.634644 618.334167,87.317101 617.010742,93.896935 
	C615.439514,101.708427 619.899902,109.263153 627.054016,110.907806 
	C634.307068,112.575188 642.221863,108.072372 643.986206,101.274948 
	C646.049133,93.327171 641.917908,86.362495 632.843201,83.505882 
z"/>
<path fill="#018993" opacity="1.000000" stroke="none" 
	d="
M596.448853,230.381989 
	C598.242188,237.171768 599.590088,243.636032 601.676208,249.852554 
	C604.113159,257.114319 608.568115,261.831146 616.902649,263.620239 
	C629.176575,266.255035 637.248657,274.492157 639.920410,286.968842 
	C642.768616,300.269714 638.204590,311.097687 627.275818,319.062897 
	C617.343567,326.301788 604.723633,326.294067 592.312927,319.196899 
	C585.213013,333.607880 573.302490,340.523224 557.612122,337.650879 
	C541.705627,334.738983 533.727051,323.401031 532.085876,307.570496 
	C512.997009,313.620148 498.415039,302.720276 500.711731,283.419067 
	C490.496460,279.745605 482.887238,273.201965 480.033142,262.450317 
	C476.812805,250.318985 479.262543,239.352524 488.829620,230.707275 
	C498.032623,222.391006 509.411682,219.674698 520.197632,224.956360 
	C532.638123,231.048218 542.824707,227.805191 553.370056,221.857056 
	C566.018250,214.722809 575.476196,204.600586 581.435181,190.796524 
	C587.908020,193.470901 594.227112,196.081772 600.883179,198.831863 
	C597.347473,209.011993 595.079712,219.245117 596.448853,230.381989 
z"/>
<path fill="#261E65" opacity="1.000000" stroke="none" 
	d="
M407.065063,538.001953 
	C404.269653,538.001953 401.963928,538.001953 399.367157,538.001953 
	C399.367157,497.663635 399.367157,457.630951 399.367157,417.297760 
	C423.423096,417.297760 447.468475,417.297760 471.792603,417.297760 
	C471.792603,457.349304 471.792603,497.386078 471.792603,538.001953 
	C450.386993,538.001953 428.970856,538.001953 407.065063,538.001953 
M446.848022,500.493713 
	C446.848022,480.417725 446.848022,460.341736 446.848022,440.325562 
	C439.046356,440.325562 431.948944,440.325562 424.947998,440.325562 
	C424.947998,465.326416 424.947998,490.031342 424.947998,514.694092 
	C432.376801,514.694092 439.449982,514.694092 446.847992,514.694092 
	C446.847992,510.092102 446.847992,505.790863 446.848022,500.493713 
z"/>
<path fill="#261E65" opacity="1.000000" stroke="none" 
	d="
M613.990967,416.997986 
	C618.466797,416.997986 622.444092,416.997986 626.744812,416.997986 
	C626.744812,457.258484 626.744812,497.294342 626.744812,537.666382 
	C602.849365,537.666382 578.797119,537.666382 554.408325,537.666382 
	C554.408325,497.752289 554.408325,457.720459 554.408325,416.997986 
	C574.021118,416.997986 593.756775,416.997986 613.990967,416.997986 
M579.595886,508.467102 
	C579.595886,510.557220 579.595886,512.647339 579.595886,514.716797 
	C587.327209,514.716797 594.402466,514.716797 601.517334,514.716797 
	C601.517334,489.726379 601.517334,465.021271 601.517334,440.309570 
	C594.089844,440.309570 586.996277,440.309570 579.595764,440.309570 
	C579.595764,462.881317 579.595764,485.175934 579.595886,508.467102 
z"/>
<path fill="#251D64" opacity="1.000000" stroke="none" 
	d="
M318.075623,476.000000 
	C318.075592,463.001617 317.946045,450.500641 318.199188,438.007385 
	C318.242950,435.847382 319.395050,433.211456 320.919922,431.671234 
	C325.943420,426.596985 330.648438,420.165161 336.856873,417.608429 
	C342.708649,415.198608 350.308167,417.015106 357.138855,417.004211 
	C367.277954,416.988068 377.417145,417.000000 387.854401,417.000000 
	C387.854401,447.020111 387.854401,476.745209 387.854401,506.883911 
	C373.262634,506.883911 358.664490,506.883911 343.567810,506.883911 
	C343.567810,517.368896 343.567810,527.454407 343.567810,537.766479 
	C334.956512,537.766479 326.844482,537.766479 318.075592,537.766479 
	C318.075592,517.347473 318.075592,496.923737 318.075623,476.000000 
M355.446411,484.014008 
	C357.871704,484.014008 360.297028,484.014008 362.573517,484.014008 
	C362.573517,468.954498 362.573517,454.567352 362.573517,440.269684 
	C356.091827,440.269684 349.988464,440.269684 343.720215,440.269684 
	C343.720215,454.930817 343.720215,469.339630 343.720215,484.014008 
	C347.500885,484.014008 350.988312,484.014008 355.446411,484.014008 
z"/>
<path fill="#251D65" opacity="1.000000" stroke="none" 
	d="
M535.934937,538.000916 
	C518.151917,538.000916 500.858765,538.000916 483.321472,538.000916 
	C483.321472,497.660889 483.321472,457.722839 483.321472,417.391693 
	C491.404327,417.391693 499.620636,417.391693 508.359192,417.391693 
	C508.359192,449.712494 508.359192,482.101654 508.359192,514.818237 
	C520.308838,514.818237 531.750122,514.818237 543.557495,514.818237 
	C543.557495,522.530823 543.557495,529.927246 543.557495,538.000916 
	C541.276672,538.000916 538.850769,538.000916 535.934937,538.000916 
z"/>
<path fill="#FDFEFE" opacity="1.000000" stroke="none" 
	d="
M633.219910,83.632736 
	C641.917908,86.362495 646.049133,93.327171 643.986206,101.274948 
	C642.221863,108.072372 634.307068,112.575188 627.054016,110.907806 
	C619.899902,109.263153 615.439514,101.708427 617.010742,93.896935 
	C618.334167,87.317101 625.468628,82.634644 633.219910,83.632736 
z"/>
<path fill="#FCFCFD" opacity="1.000000" stroke="none" 
	d="
M446.848022,500.991669 
	C446.847992,505.790863 446.847992,510.092102 446.847992,514.694092 
	C439.449982,514.694092 432.376801,514.694092 424.947998,514.694092 
	C424.947998,490.031342 424.947998,465.326416 424.947998,440.325562 
	C431.948944,440.325562 439.046356,440.325562 446.848022,440.325562 
	C446.848022,460.341736 446.848022,480.417725 446.848022,500.991669 
z"/>
<path fill="#FCFCFD" opacity="1.000000" stroke="none" 
	d="
M579.595825,507.968811 
	C579.595764,485.175934 579.595764,462.881317 579.595764,440.309570 
	C586.996277,440.309570 594.089844,440.309570 601.517334,440.309570 
	C601.517334,465.021271 601.517334,489.726379 601.517334,514.716797 
	C594.402466,514.716797 587.327209,514.716797 579.595886,514.716797 
	C579.595886,512.647339 579.595886,510.557220 579.595825,507.968811 
z"/>
<path fill="#F8F8FA" opacity="1.000000" stroke="none" 
	d="
M354.961060,484.014008 
	C350.988312,484.014008 347.500885,484.014008 343.720215,484.014008 
	C343.720215,469.339630 343.720215,454.930817 343.720215,440.269684 
	C349.988464,440.269684 356.091827,440.269684 362.573517,440.269684 
	C362.573517,454.567352 362.573517,468.954498 362.573517,484.014008 
	C360.297028,484.014008 357.871704,484.014008 354.961060,484.014008 
z"/>
</svg>